<mxfile host="app.diagrams.net" agent="Mozilla/5.0 (Windows NT 10.0; Win64; x64; rv:129.0) Gecko/20100101 Firefox/129.0" version="24.7.7">
  <diagram name="Page-1" id="l1fh0S_OrW8yNGmGO06b">
    <mxGraphModel dx="2206" dy="1148" grid="1" gridSize="10" guides="1" tooltips="1" connect="1" arrows="1" fold="1" page="1" pageScale="1" pageWidth="850" pageHeight="1100" math="0" shadow="0">
      <root>
        <mxCell id="0" />
        <mxCell id="1" parent="0" />
        <mxCell id="vw9haiUQlAbyGq-rVxak-1" value="&lt;b&gt;AWS Cognito&lt;/b&gt;&lt;div&gt;Authentication&lt;/div&gt;" style="sketch=0;points=[[0,0,0],[0.25,0,0],[0.5,0,0],[0.75,0,0],[1,0,0],[0,1,0],[0.25,1,0],[0.5,1,0],[0.75,1,0],[1,1,0],[0,0.25,0],[0,0.5,0],[0,0.75,0],[1,0.25,0],[1,0.5,0],[1,0.75,0]];outlineConnect=0;fontColor=#232F3E;fillColor=#DD344C;strokeColor=#ffffff;dashed=0;verticalLabelPosition=bottom;verticalAlign=top;align=center;html=1;fontSize=12;fontStyle=0;aspect=fixed;shape=mxgraph.aws4.resourceIcon;resIcon=mxgraph.aws4.cognito;" vertex="1" parent="1">
          <mxGeometry x="384" y="788" width="78" height="78" as="geometry" />
        </mxCell>
        <mxCell id="vw9haiUQlAbyGq-rVxak-2" value="&lt;b&gt;AWS Amplify&lt;/b&gt;&lt;br&gt;Web App" style="sketch=0;points=[[0,0,0],[0.25,0,0],[0.5,0,0],[0.75,0,0],[1,0,0],[0,1,0],[0.25,1,0],[0.5,1,0],[0.75,1,0],[1,1,0],[0,0.25,0],[0,0.5,0],[0,0.75,0],[1,0.25,0],[1,0.5,0],[1,0.75,0]];outlineConnect=0;fontColor=#232F3E;fillColor=#DD344C;strokeColor=#ffffff;dashed=0;verticalLabelPosition=bottom;verticalAlign=top;align=center;html=1;fontSize=12;fontStyle=0;aspect=fixed;shape=mxgraph.aws4.resourceIcon;resIcon=mxgraph.aws4.amplify;" vertex="1" parent="1">
          <mxGeometry x="384" y="553" width="78" height="78" as="geometry" />
        </mxCell>
        <mxCell id="vw9haiUQlAbyGq-rVxak-3" value="&lt;b&gt;AWS RDS&lt;br&gt;&lt;/b&gt;SQL and Vector Database" style="sketch=0;points=[[0,0,0],[0.25,0,0],[0.5,0,0],[0.75,0,0],[1,0,0],[0,1,0],[0.25,1,0],[0.5,1,0],[0.75,1,0],[1,1,0],[0,0.25,0],[0,0.5,0],[0,0.75,0],[1,0.25,0],[1,0.5,0],[1,0.75,0]];outlineConnect=0;fontColor=#232F3E;fillColor=#C925D1;strokeColor=#ffffff;dashed=0;verticalLabelPosition=bottom;verticalAlign=top;align=center;html=1;fontSize=12;fontStyle=0;aspect=fixed;shape=mxgraph.aws4.resourceIcon;resIcon=mxgraph.aws4.rds;" vertex="1" parent="1">
          <mxGeometry x="1021" y="556" width="68" height="68" as="geometry" />
        </mxCell>
        <mxCell id="vw9haiUQlAbyGq-rVxak-4" value="" style="edgeStyle=orthogonalEdgeStyle;html=1;endArrow=block;elbow=vertical;startArrow=none;endFill=1;strokeColor=#545B64;rounded=0;entryX=0;entryY=0.5;entryDx=0;entryDy=0;" edge="1" parent="1" target="vw9haiUQlAbyGq-rVxak-23">
          <mxGeometry width="100" relative="1" as="geometry">
            <mxPoint x="484" y="590" as="sourcePoint" />
            <mxPoint x="566" y="588.5" as="targetPoint" />
          </mxGeometry>
        </mxCell>
        <mxCell id="vw9haiUQlAbyGq-rVxak-58" style="edgeStyle=orthogonalEdgeStyle;rounded=0;orthogonalLoop=1;jettySize=auto;html=1;" edge="1" parent="1" source="vw9haiUQlAbyGq-rVxak-6">
          <mxGeometry relative="1" as="geometry">
            <mxPoint x="980" y="836" as="targetPoint" />
          </mxGeometry>
        </mxCell>
        <mxCell id="vw9haiUQlAbyGq-rVxak-59" style="edgeStyle=orthogonalEdgeStyle;rounded=0;orthogonalLoop=1;jettySize=auto;html=1;entryX=0.5;entryY=0;entryDx=0;entryDy=0;" edge="1" parent="1" source="vw9haiUQlAbyGq-rVxak-6" target="vw9haiUQlAbyGq-rVxak-42">
          <mxGeometry relative="1" as="geometry" />
        </mxCell>
        <mxCell id="vw9haiUQlAbyGq-rVxak-6" value="&lt;b&gt;AWS Lambda&lt;/b&gt;&lt;br&gt;Generate LLM Response&lt;br&gt;&lt;div&gt;LangChain&lt;/div&gt;&lt;div&gt;&lt;br&gt;&lt;/div&gt;" style="sketch=0;points=[[0,0,0],[0.25,0,0],[0.5,0,0],[0.75,0,0],[1,0,0],[0,1,0],[0.25,1,0],[0.5,1,0],[0.75,1,0],[1,1,0],[0,0.25,0],[0,0.5,0],[0,0.75,0],[1,0.25,0],[1,0.5,0],[1,0.75,0]];outlineConnect=0;fontColor=#232F3E;fillColor=#ED7100;strokeColor=#ffffff;dashed=0;verticalLabelPosition=bottom;verticalAlign=top;align=center;html=1;fontSize=12;fontStyle=0;aspect=fixed;shape=mxgraph.aws4.resourceIcon;resIcon=mxgraph.aws4.lambda;" vertex="1" parent="1">
          <mxGeometry x="717" y="800" width="72" height="72" as="geometry" />
        </mxCell>
        <mxCell id="vw9haiUQlAbyGq-rVxak-7" style="edgeStyle=orthogonalEdgeStyle;rounded=0;orthogonalLoop=1;jettySize=auto;html=1;entryX=0;entryY=0.5;entryDx=0;entryDy=0;" edge="1" parent="1" source="vw9haiUQlAbyGq-rVxak-8" target="vw9haiUQlAbyGq-rVxak-36">
          <mxGeometry relative="1" as="geometry" />
        </mxCell>
        <mxCell id="vw9haiUQlAbyGq-rVxak-8" value="Users" style="sketch=0;outlineConnect=0;fontColor=#232F3E;gradientColor=none;strokeColor=#232F3E;fillColor=#ffffff;dashed=0;verticalLabelPosition=bottom;verticalAlign=top;align=center;html=1;fontSize=12;fontStyle=0;aspect=fixed;shape=mxgraph.aws4.resourceIcon;resIcon=mxgraph.aws4.client;" vertex="1" parent="1">
          <mxGeometry x="74" y="559" width="60" height="60" as="geometry" />
        </mxCell>
        <mxCell id="vw9haiUQlAbyGq-rVxak-9" style="edgeStyle=orthogonalEdgeStyle;rounded=0;orthogonalLoop=1;jettySize=auto;html=1;entryX=0;entryY=0.5;entryDx=0;entryDy=0;entryPerimeter=0;" edge="1" parent="1" source="vw9haiUQlAbyGq-rVxak-10" target="vw9haiUQlAbyGq-rVxak-3">
          <mxGeometry relative="1" as="geometry">
            <mxPoint x="864" y="590" as="targetPoint" />
          </mxGeometry>
        </mxCell>
        <mxCell id="vw9haiUQlAbyGq-rVxak-10" value="&lt;b&gt;AWS Lambda&lt;/b&gt;&lt;br&gt;CRUD&amp;nbsp;" style="sketch=0;points=[[0,0,0],[0.25,0,0],[0.5,0,0],[0.75,0,0],[1,0,0],[0,1,0],[0.25,1,0],[0.5,1,0],[0.75,1,0],[1,1,0],[0,0.25,0],[0,0.5,0],[0,0.75,0],[1,0.25,0],[1,0.5,0],[1,0.75,0]];outlineConnect=0;fontColor=#232F3E;fillColor=#ED7100;strokeColor=#ffffff;dashed=0;verticalLabelPosition=bottom;verticalAlign=top;align=center;html=1;fontSize=12;fontStyle=0;aspect=fixed;shape=mxgraph.aws4.resourceIcon;resIcon=mxgraph.aws4.lambda;" vertex="1" parent="1">
          <mxGeometry x="717" y="554" width="72" height="72" as="geometry" />
        </mxCell>
        <mxCell id="vw9haiUQlAbyGq-rVxak-11" style="edgeStyle=orthogonalEdgeStyle;rounded=0;orthogonalLoop=1;jettySize=auto;html=1;entryX=0;entryY=0.5;entryDx=0;entryDy=0;entryPerimeter=0;exitX=1;exitY=0.5;exitDx=0;exitDy=0;" edge="1" parent="1" source="vw9haiUQlAbyGq-rVxak-23" target="vw9haiUQlAbyGq-rVxak-10">
          <mxGeometry relative="1" as="geometry" />
        </mxCell>
        <mxCell id="vw9haiUQlAbyGq-rVxak-13" value="&lt;b&gt;AWS S3&lt;br&gt;&lt;/b&gt;Upload Document" style="sketch=0;points=[[0,0,0],[0.25,0,0],[0.5,0,0],[0.75,0,0],[1,0,0],[0,1,0],[0.25,1,0],[0.5,1,0],[0.75,1,0],[1,1,0],[0,0.25,0],[0,0.5,0],[0,0.75,0],[1,0.25,0],[1,0.5,0],[1,0.75,0]];outlineConnect=0;fontColor=#232F3E;fillColor=#7AA116;strokeColor=#ffffff;dashed=0;verticalLabelPosition=bottom;verticalAlign=top;align=center;html=1;fontSize=12;fontStyle=0;aspect=fixed;shape=mxgraph.aws4.resourceIcon;resIcon=mxgraph.aws4.s3;" vertex="1" parent="1">
          <mxGeometry x="910" y="250" width="78" height="78" as="geometry" />
        </mxCell>
        <mxCell id="vw9haiUQlAbyGq-rVxak-53" style="edgeStyle=orthogonalEdgeStyle;rounded=0;orthogonalLoop=1;jettySize=auto;html=1;entryX=1;entryY=0.5;entryDx=0;entryDy=0;" edge="1" parent="1" source="vw9haiUQlAbyGq-rVxak-14" target="vw9haiUQlAbyGq-rVxak-34">
          <mxGeometry relative="1" as="geometry">
            <Array as="points">
              <mxPoint x="1275" y="827" />
            </Array>
          </mxGeometry>
        </mxCell>
        <mxCell id="vw9haiUQlAbyGq-rVxak-14" value="&lt;b&gt;AWS Lambda&lt;/b&gt;&lt;br&gt;Retrieve text based &lt;br&gt;on document type" style="sketch=0;points=[[0,0,0],[0.25,0,0],[0.5,0,0],[0.75,0,0],[1,0,0],[0,1,0],[0.25,1,0],[0.5,1,0],[0.75,1,0],[1,1,0],[0,0.25,0],[0,0.5,0],[0,0.75,0],[1,0.25,0],[1,0.5,0],[1,0.75,0]];outlineConnect=0;fontColor=#232F3E;fillColor=#ED7100;strokeColor=#ffffff;dashed=0;verticalLabelPosition=bottom;verticalAlign=top;align=center;html=1;fontSize=12;fontStyle=0;aspect=fixed;shape=mxgraph.aws4.resourceIcon;resIcon=mxgraph.aws4.lambda;" vertex="1" parent="1">
          <mxGeometry x="1239" y="253" width="72" height="72" as="geometry" />
        </mxCell>
        <mxCell id="vw9haiUQlAbyGq-rVxak-15" style="edgeStyle=orthogonalEdgeStyle;rounded=0;orthogonalLoop=1;jettySize=auto;html=1;entryX=0;entryY=0.5;entryDx=0;entryDy=0;entryPerimeter=0;" edge="1" parent="1" source="vw9haiUQlAbyGq-rVxak-13" target="vw9haiUQlAbyGq-rVxak-14">
          <mxGeometry relative="1" as="geometry" />
        </mxCell>
        <mxCell id="vw9haiUQlAbyGq-rVxak-23" value="&lt;b&gt;&lt;font color=&quot;#000000&quot;&gt;API&lt;/font&gt;&lt;/b&gt;" style="fillColor=none;strokeColor=#5A6C86;dashed=1;verticalAlign=top;fontStyle=0;fontColor=#5A6C86;whiteSpace=wrap;html=1;fontSize=15;" vertex="1" parent="1">
          <mxGeometry x="519" y="490" width="120" height="200" as="geometry" />
        </mxCell>
        <mxCell id="vw9haiUQlAbyGq-rVxak-24" style="edgeStyle=orthogonalEdgeStyle;rounded=0;orthogonalLoop=1;jettySize=auto;html=1;" edge="1" parent="1" source="vw9haiUQlAbyGq-rVxak-25" target="vw9haiUQlAbyGq-rVxak-1">
          <mxGeometry relative="1" as="geometry" />
        </mxCell>
        <mxCell id="vw9haiUQlAbyGq-rVxak-25" value="&lt;font style=&quot;font-size: 15px;&quot; color=&quot;#000000&quot;&gt;&lt;b&gt;Frontend&lt;/b&gt;&lt;/font&gt;" style="fillColor=none;strokeColor=#5A6C86;dashed=1;verticalAlign=top;fontStyle=0;fontColor=#5A6C86;whiteSpace=wrap;html=1;" vertex="1" parent="1">
          <mxGeometry x="363" y="490" width="120" height="200" as="geometry" />
        </mxCell>
        <mxCell id="vw9haiUQlAbyGq-rVxak-26" style="edgeStyle=orthogonalEdgeStyle;rounded=0;orthogonalLoop=1;jettySize=auto;html=1;" edge="1" parent="1" source="vw9haiUQlAbyGq-rVxak-28" target="vw9haiUQlAbyGq-rVxak-30">
          <mxGeometry relative="1" as="geometry" />
        </mxCell>
        <mxCell id="vw9haiUQlAbyGq-rVxak-27" value="" style="edgeStyle=orthogonalEdgeStyle;rounded=0;orthogonalLoop=1;jettySize=auto;html=1;" edge="1" parent="1" source="vw9haiUQlAbyGq-rVxak-28" target="vw9haiUQlAbyGq-rVxak-29">
          <mxGeometry relative="1" as="geometry" />
        </mxCell>
        <mxCell id="vw9haiUQlAbyGq-rVxak-28" value="&lt;b&gt;Amazon Cloudfront&lt;/b&gt;&lt;br&gt;Content Delivery Network" style="sketch=0;points=[[0,0,0],[0.25,0,0],[0.5,0,0],[0.75,0,0],[1,0,0],[0,1,0],[0.25,1,0],[0.5,1,0],[0.75,1,0],[1,1,0],[0,0.25,0],[0,0.5,0],[0,0.75,0],[1,0.25,0],[1,0.5,0],[1,0.75,0]];outlineConnect=0;fontColor=#232F3E;fillColor=#8C4FFF;strokeColor=#ffffff;dashed=0;verticalLabelPosition=bottom;verticalAlign=top;align=center;html=1;fontSize=12;fontStyle=0;aspect=fixed;shape=mxgraph.aws4.resourceIcon;resIcon=mxgraph.aws4.cloudfront;" vertex="1" parent="1">
          <mxGeometry x="224" y="559" width="78" height="78" as="geometry" />
        </mxCell>
        <mxCell id="vw9haiUQlAbyGq-rVxak-29" value="&lt;b&gt;AWS Shield&lt;/b&gt;&lt;br&gt;Layer 3 &amp;amp; 4 Protection" style="sketch=0;points=[[0,0,0],[0.25,0,0],[0.5,0,0],[0.75,0,0],[1,0,0],[0,1,0],[0.25,1,0],[0.5,1,0],[0.75,1,0],[1,1,0],[0,0.25,0],[0,0.5,0],[0,0.75,0],[1,0.25,0],[1,0.5,0],[1,0.75,0]];outlineConnect=0;fontColor=#232F3E;fillColor=#DD344C;strokeColor=#ffffff;dashed=0;verticalLabelPosition=bottom;verticalAlign=top;align=center;html=1;fontSize=12;fontStyle=0;aspect=fixed;shape=mxgraph.aws4.resourceIcon;resIcon=mxgraph.aws4.shield;" vertex="1" parent="1">
          <mxGeometry x="224" y="710" width="78" height="78" as="geometry" />
        </mxCell>
        <mxCell id="vw9haiUQlAbyGq-rVxak-30" value="&lt;b&gt;AWS WAF&lt;/b&gt;&lt;br&gt;Layer 7 Protection" style="sketch=0;points=[[0,0,0],[0.25,0,0],[0.5,0,0],[0.75,0,0],[1,0,0],[0,1,0],[0.25,1,0],[0.5,1,0],[0.75,1,0],[1,1,0],[0,0.25,0],[0,0.5,0],[0,0.75,0],[1,0.25,0],[1,0.5,0],[1,0.75,0]];outlineConnect=0;fontColor=#232F3E;fillColor=#DD344C;strokeColor=#ffffff;dashed=0;verticalLabelPosition=bottom;verticalAlign=top;align=center;html=1;fontSize=12;fontStyle=0;aspect=fixed;shape=mxgraph.aws4.resourceIcon;resIcon=mxgraph.aws4.waf;" vertex="1" parent="1">
          <mxGeometry x="224" y="400" width="78" height="78" as="geometry" />
        </mxCell>
        <mxCell id="vw9haiUQlAbyGq-rVxak-31" style="edgeStyle=orthogonalEdgeStyle;rounded=0;orthogonalLoop=1;jettySize=auto;html=1;entryX=0;entryY=0.5;entryDx=0;entryDy=0;" edge="1" parent="1" source="vw9haiUQlAbyGq-rVxak-36" target="vw9haiUQlAbyGq-rVxak-25">
          <mxGeometry relative="1" as="geometry" />
        </mxCell>
        <mxCell id="vw9haiUQlAbyGq-rVxak-60" style="edgeStyle=orthogonalEdgeStyle;rounded=0;orthogonalLoop=1;jettySize=auto;html=1;entryX=0.5;entryY=1;entryDx=0;entryDy=0;" edge="1" parent="1" source="vw9haiUQlAbyGq-rVxak-34" target="vw9haiUQlAbyGq-rVxak-35">
          <mxGeometry relative="1" as="geometry" />
        </mxCell>
        <mxCell id="vw9haiUQlAbyGq-rVxak-34" value="&lt;font color=&quot;#000000&quot; style=&quot;font-size: 15px;&quot;&gt;&lt;b&gt;Generative AI&lt;/b&gt;&lt;/font&gt;" style="fillColor=none;strokeColor=#5A6C86;dashed=1;verticalAlign=top;fontStyle=0;fontColor=#5A6C86;whiteSpace=wrap;html=1;" vertex="1" parent="1">
          <mxGeometry x="980.5" y="738" width="149" height="178" as="geometry" />
        </mxCell>
        <mxCell id="vw9haiUQlAbyGq-rVxak-35" value="&lt;font style=&quot;font-size: 15px;&quot; color=&quot;#000000&quot;&gt;&lt;b&gt;Database&lt;/b&gt;&lt;/font&gt;" style="fillColor=none;strokeColor=#5A6C86;dashed=1;verticalAlign=top;fontStyle=0;fontColor=#5A6C86;whiteSpace=wrap;html=1;" vertex="1" parent="1">
          <mxGeometry x="970" y="490" width="170" height="181" as="geometry" />
        </mxCell>
        <mxCell id="vw9haiUQlAbyGq-rVxak-36" value="&lt;font color=&quot;#000000&quot; style=&quot;font-size: 15px;&quot;&gt;&lt;b&gt;Security&lt;/b&gt;&lt;/font&gt;&lt;div&gt;&lt;font color=&quot;#000000&quot; style=&quot;font-size: 15px;&quot;&gt;&lt;br&gt;&lt;/font&gt;&lt;/div&gt;" style="fillColor=none;strokeColor=#5A6C86;dashed=1;verticalAlign=top;fontStyle=0;fontColor=#5A6C86;whiteSpace=wrap;html=1;" vertex="1" parent="1">
          <mxGeometry x="193" y="339" width="140" height="500" as="geometry" />
        </mxCell>
        <mxCell id="vw9haiUQlAbyGq-rVxak-37" value="&lt;b&gt;AWS API Gateway&lt;/b&gt;&lt;br&gt;REST Endpoint" style="sketch=0;points=[[0,0,0],[0.25,0,0],[0.5,0,0],[0.75,0,0],[1,0,0],[0,1,0],[0.25,1,0],[0.5,1,0],[0.75,1,0],[1,1,0],[0,0.25,0],[0,0.5,0],[0,0.75,0],[1,0.25,0],[1,0.5,0],[1,0.75,0]];outlineConnect=0;fontColor=#232F3E;fillColor=#E7157B;strokeColor=#ffffff;dashed=0;verticalLabelPosition=bottom;verticalAlign=top;align=center;html=1;fontSize=12;fontStyle=0;aspect=fixed;shape=mxgraph.aws4.resourceIcon;resIcon=mxgraph.aws4.api_gateway;" vertex="1" parent="1">
          <mxGeometry x="540" y="550" width="78" height="78" as="geometry" />
        </mxCell>
        <mxCell id="vw9haiUQlAbyGq-rVxak-41" value="&lt;b&gt;Amazon DynamoDB&lt;/b&gt;&lt;br&gt;Conversation Memory" style="sketch=0;points=[[0,0,0],[0.25,0,0],[0.5,0,0],[0.75,0,0],[1,0,0],[0,1,0],[0.25,1,0],[0.5,1,0],[0.75,1,0],[1,1,0],[0,0.25,0],[0,0.5,0],[0,0.75,0],[1,0.25,0],[1,0.5,0],[1,0.75,0]];outlineConnect=0;fontColor=#232F3E;fillColor=#C925D1;strokeColor=#ffffff;dashed=0;verticalLabelPosition=bottom;verticalAlign=top;align=center;html=1;fontSize=12;fontStyle=0;aspect=fixed;shape=mxgraph.aws4.resourceIcon;resIcon=mxgraph.aws4.dynamodb;" vertex="1" parent="1">
          <mxGeometry x="717" y="1020" width="72" height="72" as="geometry" />
        </mxCell>
        <mxCell id="vw9haiUQlAbyGq-rVxak-42" value="&lt;font color=&quot;#000000&quot;&gt;&lt;b style=&quot;font-size: 15px;&quot;&gt;LLM Memory&lt;br&gt;&lt;/b&gt;&lt;/font&gt;" style="fillColor=none;strokeColor=#5A6C86;dashed=1;verticalAlign=top;fontStyle=0;fontColor=#5A6C86;whiteSpace=wrap;html=1;" vertex="1" parent="1">
          <mxGeometry x="678.5" y="971" width="149" height="170" as="geometry" />
        </mxCell>
        <mxCell id="vw9haiUQlAbyGq-rVxak-43" value="&lt;font style=&quot;font-size: 16px;&quot; color=&quot;#000000&quot;&gt;&lt;b&gt;Data Ingestion Pipeline&lt;/b&gt;&lt;/font&gt;" style="fillColor=none;strokeColor=#5A6C86;dashed=1;verticalAlign=top;fontStyle=0;fontColor=#5A6C86;whiteSpace=wrap;html=1;" vertex="1" parent="1">
          <mxGeometry x="830" y="170" width="570" height="230" as="geometry" />
        </mxCell>
        <mxCell id="vw9haiUQlAbyGq-rVxak-46" style="edgeStyle=orthogonalEdgeStyle;rounded=0;orthogonalLoop=1;jettySize=auto;html=1;entryX=0;entryY=0.5;entryDx=0;entryDy=0;entryPerimeter=0;" edge="1" parent="1" source="vw9haiUQlAbyGq-rVxak-25" target="vw9haiUQlAbyGq-rVxak-13">
          <mxGeometry relative="1" as="geometry">
            <Array as="points">
              <mxPoint x="423" y="300" />
            </Array>
          </mxGeometry>
        </mxCell>
        <mxCell id="vw9haiUQlAbyGq-rVxak-32" value="&lt;b&gt;AWS Bedrock&lt;/b&gt;&lt;br&gt;LLM" style="sketch=0;points=[[0,0,0],[0.25,0,0],[0.5,0,0],[0.75,0,0],[1,0,0],[0,1,0],[0.25,1,0],[0.5,1,0],[0.75,1,0],[1,1,0],[0,0.25,0],[0,0.5,0],[0,0.75,0],[1,0.25,0],[1,0.5,0],[1,0.75,0]];outlineConnect=0;fontColor=#232F3E;fillColor=#01A88D;strokeColor=#ffffff;dashed=0;verticalLabelPosition=bottom;verticalAlign=top;align=center;html=1;fontSize=12;fontStyle=0;aspect=fixed;shape=mxgraph.aws4.resourceIcon;resIcon=mxgraph.aws4.bedrock;" vertex="1" parent="1">
          <mxGeometry x="1016" y="788" width="78" height="78" as="geometry" />
        </mxCell>
        <mxCell id="vw9haiUQlAbyGq-rVxak-55" style="edgeStyle=orthogonalEdgeStyle;rounded=0;orthogonalLoop=1;jettySize=auto;html=1;entryX=0;entryY=0.5;entryDx=0;entryDy=0;entryPerimeter=0;" edge="1" parent="1" source="vw9haiUQlAbyGq-rVxak-23" target="vw9haiUQlAbyGq-rVxak-6">
          <mxGeometry relative="1" as="geometry">
            <Array as="points">
              <mxPoint x="579" y="836" />
            </Array>
          </mxGeometry>
        </mxCell>
      </root>
    </mxGraphModel>
  </diagram>
</mxfile>
